<?xml version="1.0" standalone="no"?>
<!DOCTYPE svg PUBLIC "-//W3C//DTD SVG 20010904//EN"
 "http://www.w3.org/TR/2001/REC-SVG-20010904/DTD/svg10.dtd">
<svg version="1.0" xmlns="http://www.w3.org/2000/svg"
 width="1000.000000pt" height="1000.000000pt" viewBox="0 0 1000.000000 1000.000000"
 preserveAspectRatio="xMidYMid meet">
<metadata>
Created by potrace 1.16, written by Peter Selinger 2001-2019
</metadata>
<g transform="translate(0.000000,1000.000000) scale(0.100000,-0.100000)"
fill="#000000" stroke="none">
<path d="M4365 7109 c-126 -19 -191 -30 -230 -40 -103 -27 -124 -33 -180 -52
-167 -56 -359 -154 -514 -265 -123 -87 -330 -289 -401 -392 -13 -19 -27 -37
-30 -40 -9 -7 -70 -98 -70 -103 0 -3 -17 -34 -38 -68 -41 -68 -60 -109 -112
-234 -22 -52 -60 -181 -79 -265 -31 -141 -35 -187 -35 -370 0 -183 4 -229 35
-370 19 -84 57 -213 79 -265 52 -127 71 -165 112 -234 21 -34 38 -65 38 -68 0
-5 61 -96 70 -103 3 -3 17 -21 30 -40 71 -103 278 -305 401 -392 167 -119 432
-253 488 -246 l26 3 7 185 c8 247 31 395 93 597 9 29 -26 50 -49 28 -43 -44
-126 7 -174 107 -38 78 -52 139 -52 218 0 105 40 228 80 250 26 14 25 40 -1
87 -105 186 -236 296 -459 382 -73 28 -163 97 -227 173 -52 61 -65 88 -41 88
6 0 1 12 -13 26 -22 24 -24 34 -24 122 1 78 5 109 25 157 28 72 76 148 136
214 24 27 44 56 44 65 0 25 27 73 45 80 20 7 70 -17 78 -38 3 -8 22 -22 41
-30 81 -36 104 -45 156 -66 30 -12 70 -28 88 -36 17 -8 47 -20 65 -28 17 -8
52 -22 77 -32 25 -10 57 -28 73 -40 18 -16 33 -21 45 -15 9 4 38 17 63 29 99
47 281 65 401 41 73 -14 176 -49 216 -71 17 -10 48 -27 68 -38 196 -111 354
-265 421 -409 23 -51 27 -76 39 -276 7 -121 16 -233 19 -250 3 -16 11 -57 17
-90 18 -101 72 -300 97 -360 5 -11 15 -36 22 -55 34 -94 115 -264 179 -375 44
-75 175 -276 205 -313 8 -9 44 -55 82 -102 91 -114 120 -147 239 -268 92 -94
104 -103 123 -93 25 14 28 53 4 72 -42 36 -296 320 -332 373 -8 12 -17 23 -21
26 -3 3 -38 50 -77 105 -62 88 -96 141 -165 260 -18 31 -123 244 -138 280 -38
90 -93 259 -114 350 -48 204 -57 268 -61 457 -4 210 -18 263 -106 393 -117
175 -407 383 -619 444 -174 49 -383 40 -527 -25 -30 -13 -37 -13 -70 2 -72 31
-98 43 -153 64 -30 12 -70 28 -87 36 -76 33 -101 44 -162 68 -36 14 -69 26
-75 26 -5 0 -20 10 -33 22 -56 53 -145 14 -173 -75 -7 -23 -30 -60 -50 -82
-68 -74 -120 -162 -151 -260 -18 -55 -18 -229 0 -285 33 -105 193 -264 311
-310 135 -52 224 -104 291 -168 71 -66 149 -169 149 -194 0 -7 -13 -40 -29
-73 -37 -78 -45 -119 -45 -235 0 -111 8 -155 41 -229 39 -84 129 -171 180
-171 23 0 25 -25 10 -92 -35 -149 -48 -250 -56 -428 -7 -171 6 -164 -151 -87
-175 86 -327 194 -475 339 -136 134 -156 158 -253 304 -93 140 -191 357 -223
494 -80 343 -80 547 0 900 41 180 160 415 314 626 64 86 290 298 397 370 327
222 686 334 1070 334 384 0 743 -112 1070 -334 107 -73 338 -287 393 -366 20
-28 36 -40 53 -40 42 0 28 37 -48 128 -241 284 -591 506 -945 601 -116 31
-138 35 -320 61 -85 12 -332 11 -418 -1z"/>
<path d="M6474 6587 c-27 -15 -100 -97 -143 -160 -22 -33 -66 -70 -142 -123
-60 -42 -108 -81 -106 -88 2 -6 24 -12 49 -14 37 -2 47 0 52 15 4 10 58 52
121 93 106 70 130 90 105 90 -17 0 -12 17 20 66 33 52 67 74 116 74 26 0 43
-9 75 -41 40 -40 41 -43 35 -93 -3 -28 -10 -71 -15 -96 -5 -25 -14 -72 -21
-105 -23 -115 -30 -150 -41 -195 -17 -76 -23 -160 -10 -173 17 -17 43 14 52
65 10 58 27 143 39 198 6 25 15 70 21 100 6 30 15 75 20 100 6 25 12 71 16
102 5 50 2 63 -21 102 -47 80 -156 121 -222 83z"/>
<path d="M6687 5944 c-15 -15 -6 -41 22 -61 29 -22 59 -88 82 -183 18 -76 18
-408 0 -473 -12 -41 -12 -50 1 -65 9 -9 23 -44 33 -77 10 -33 30 -98 45 -145
15 -47 37 -119 50 -160 13 -41 35 -113 50 -160 15 -47 37 -119 50 -160 13 -41
35 -113 50 -160 15 -47 37 -119 50 -160 13 -41 35 -113 50 -160 15 -47 37
-119 50 -160 13 -41 32 -104 43 -140 11 -36 28 -84 38 -107 40 -91 16 -247
-55 -357 -200 -311 -692 -311 -891 -1 -50 78 -68 139 -74 255 -5 84 -9 105
-22 108 -23 4 -39 -41 -39 -113 0 -300 262 -546 580 -545 274 2 499 172 566
428 25 95 13 224 -28 308 -8 16 -20 49 -28 74 -7 25 -20 70 -30 100 -9 30 -28
89 -40 130 -13 41 -35 113 -50 160 -15 47 -37 119 -50 160 -13 41 -35 113 -50
160 -15 47 -37 119 -50 160 -13 41 -35 113 -50 160 -15 47 -37 119 -50 160
-52 170 -72 226 -86 242 -13 13 -13 23 -3 60 8 27 12 114 12 238 0 165 -3 207
-21 276 -23 91 -55 164 -80 187 -20 19 -65 31 -75 21z"/>
<path d="M4409 5572 c-190 -117 -336 -251 -434 -398 -59 -89 -69 -114 -48
-121 6 -2 40 38 74 89 105 157 260 297 452 410 56 32 66 42 56 54 -15 19 -13
19 -100 -34z"/>
<path d="M4800 5228 c0 -304 -145 -590 -377 -745 -78 -53 -144 -82 -253 -114
-55 -15 -62 -20 -51 -38 8 -12 17 -12 58 -2 106 28 175 59 268 122 239 161
395 462 395 763 0 86 -8 116 -32 116 -4 0 -8 -46 -8 -102z"/>
<path d="M6275 5299 c-10 -31 4 -129 25 -169 31 -59 75 -95 120 -95 23 0 46 8
59 19 20 18 19 19 -80 142 -55 68 -104 124 -109 124 -5 0 -12 -9 -15 -21z"/>
<path d="M2161 3777 c-25 -12 -58 -40 -75 -60 -25 -31 -30 -47 -30 -90 -1 -29
3 -64 7 -79 7 -28 7 -28 -38 -28 -110 0 -205 -83 -205 -178 0 -56 14 -82 111
-212 47 -63 99 -135 117 -160 17 -25 67 -93 109 -151 43 -59 112 -153 153
-210 41 -57 77 -106 80 -109 3 -3 39 -52 80 -110 41 -58 80 -112 87 -120 7 -8
33 -44 59 -80 26 -36 65 -90 87 -120 23 -30 52 -71 67 -90 14 -19 42 -57 60
-85 19 -27 46 -59 60 -70 19 -16 238 -196 415 -343 11 -9 45 -37 75 -62 30
-25 57 -47 60 -50 3 -3 30 -25 60 -50 30 -25 57 -47 60 -50 3 -3 30 -25 60
-50 30 -25 57 -47 60 -50 3 -3 30 -25 60 -50 30 -25 57 -48 58 -52 2 -5 10 -8
17 -8 8 0 18 -6 22 -14 4 -7 31 -39 60 -70 29 -31 60 -73 70 -93 9 -20 49 -69
88 -108 70 -70 143 -114 240 -145 68 -22 242 -18 405 10 208 35 313 47 545 60
201 12 552 7 695 -10 423 -51 440 -55 504 -129 27 -31 67 -76 90 -101 23 -25
79 -88 126 -140 47 -52 106 -117 131 -145 25 -27 66 -72 90 -100 24 -27 50
-56 56 -63 7 -7 24 -12 38 -10 l25 3 -28 30 c-15 17 -65 73 -112 125 -47 52
-87 97 -90 100 -3 3 -43 48 -90 100 -47 52 -87 97 -91 100 -3 3 -43 48 -88
100 -49 55 -94 98 -110 102 -36 11 -178 34 -283 47 -49 6 -127 16 -175 23
-117 15 -749 15 -865 0 -49 -7 -127 -17 -175 -23 -108 -13 -250 -37 -289 -48
-45 -12 -275 -6 -309 9 -104 44 -146 71 -210 135 -38 39 -79 88 -90 110 -10
22 -44 67 -75 100 -72 79 -243 267 -300 330 -25 27 -52 57 -60 65 -8 8 -58 62
-110 120 -52 58 -118 130 -146 160 -28 30 -73 80 -100 110 -27 30 -51 57 -54
60 -44 40 -210 236 -226 266 -11 21 -31 56 -42 77 -12 20 -31 53 -42 72 -11
19 -29 51 -40 70 -11 19 -29 51 -40 70 -11 19 -28 50 -39 68 -10 17 -99 172
-197 342 l-178 310 -3 75 c-4 82 -13 129 -46 235 -35 113 -129 189 -175 143
-19 -19 -34 9 -28 51 10 64 88 121 167 121 47 0 122 -33 142 -63 8 -12 23 -31
34 -42 10 -11 75 -90 143 -175 68 -85 126 -157 129 -160 4 -3 18 -21 33 -42
15 -20 34 -42 41 -50 7 -7 69 -83 137 -168 68 -85 127 -157 130 -160 3 -3 62
-75 130 -160 68 -85 127 -157 130 -160 3 -3 43 -51 88 -107 61 -75 82 -109 82
-131 0 -16 5 -44 11 -63 29 -92 57 -129 114 -151 74 -30 200 -76 285 -104 41
-14 82 -34 90 -44 16 -20 31 -29 385 -210 132 -68 270 -139 308 -158 53 -29
70 -33 80 -23 9 10 7 16 -13 31 -14 11 -31 20 -37 20 -21 0 -15 16 10 27 97
46 337 51 562 12 100 -17 140 -17 140 0 0 10 -23 19 -75 28 -242 44 -297 54
-445 85 -161 33 -284 62 -420 98 -152 40 -227 61 -268 74 -23 7 -90 28 -149
47 -59 19 -108 37 -108 40 0 3 27 9 60 12 72 6 120 33 159 90 35 52 42 80 48
184 6 104 -16 150 -97 204 -14 9 -23 19 -20 22 10 10 362 -29 555 -62 121 -21
181 -31 225 -40 25 -5 70 -14 100 -20 89 -18 177 -37 268 -61 20 -5 55 -13 77
-19 22 -5 66 -16 98 -25 33 -9 97 -16 149 -16 50 0 132 -5 182 -10 191 -22
262 -32 301 -40 22 -5 67 -14 100 -20 33 -6 78 -16 100 -22 22 -5 56 -14 75
-18 176 -45 418 -129 579 -202 191 -86 365 -179 403 -215 15 -14 36 -31 48
-37 19 -10 32 -29 71 -108 5 -10 9 -31 9 -48 0 -63 66 -181 183 -330 33 -41
70 -88 83 -105 13 -16 62 -79 110 -140 47 -60 98 -125 113 -144 14 -19 64 -82
111 -141 47 -59 96 -122 110 -140 14 -18 63 -81 110 -140 47 -59 97 -122 111
-141 201 -258 253 -319 276 -319 l24 0 -28 37 c-33 44 -18 25 -180 229 -70 88
-139 176 -153 194 -14 18 -81 104 -150 190 -69 86 -136 172 -150 190 -14 18
-81 104 -150 190 -69 86 -136 172 -150 190 -14 18 -49 63 -77 99 -29 36 -53
69 -53 74 0 4 -15 29 -33 55 -18 27 -41 70 -51 98 -9 27 -21 57 -27 66 -5 10
-9 29 -9 43 0 28 -22 75 -51 113 -19 25 -145 121 -169 129 -8 3 -79 36 -157
74 -78 38 -144 69 -147 69 -3 0 -29 11 -58 24 -85 39 -154 65 -298 112 -187
61 -240 75 -415 114 -150 33 -440 67 -625 73 -57 2 -131 15 -225 40 -77 20
-162 41 -190 47 -105 23 -132 29 -190 40 -33 6 -78 15 -100 20 -93 19 -366 60
-525 79 -222 26 -318 33 -480 34 -167 1 -177 0 -217 -23 -45 -25 -81 -71 -103
-132 -12 -34 -30 -51 -30 -30 0 4 -13 21 -28 37 -15 17 -84 100 -152 185 -68
85 -127 157 -130 160 -3 3 -80 97 -170 210 -90 113 -167 207 -170 210 -3 3
-62 75 -130 160 -69 85 -134 166 -146 180 -12 14 -53 63 -91 110 -75 92 -88
99 -198 106 -48 3 -69 0 -104 -19z m46 -249 c16 -18 38 -53 48 -78 18 -46 45
-162 45 -192 0 -28 -15 -21 -33 15 -9 17 -25 46 -34 62 -35 59 -87 150 -100
174 -10 18 -10 27 -2 37 18 22 43 16 76 -18z m-99 -60 c5 -7 19 -30 31 -50 12
-21 30 -54 41 -73 11 -19 29 -51 40 -70 11 -19 29 -51 40 -70 11 -19 29 -52
41 -72 12 -21 25 -42 29 -48 4 -5 21 -35 37 -65 17 -30 117 -206 223 -390 106
-184 206 -360 223 -390 16 -30 33 -59 37 -65 19 -25 50 -87 50 -99 0 -8 3 -16
8 -18 4 -1 50 -50 102 -108 52 -58 118 -130 146 -160 28 -30 73 -80 100 -110
27 -30 72 -80 100 -110 28 -30 73 -80 100 -110 27 -30 56 -62 64 -70 111 -113
55 -83 -125 68 -11 9 -45 37 -75 62 -30 25 -57 47 -60 50 -3 3 -30 25 -60 50
-30 25 -57 47 -60 50 -3 3 -30 25 -60 50 -30 25 -57 47 -60 50 -3 3 -30 25
-60 50 -69 56 -68 55 -170 196 -47 64 -117 160 -155 213 -39 53 -82 112 -95
131 -13 19 -27 37 -30 40 -3 3 -39 52 -80 110 -41 58 -77 107 -80 110 -3 3
-34 46 -70 95 -35 50 -81 112 -101 139 -30 40 -35 52 -26 67 16 25 -7 118 -51
208 -42 86 -115 165 -185 199 -25 13 -49 27 -52 31 -10 18 28 72 68 96 33 19
56 25 103 25 37 0 66 -5 72 -12z m-173 -198 c80 -55 143 -148 169 -251 25 -95
26 -95 -152 146 -29 39 -52 76 -52 83 0 6 -4 12 -10 12 -5 0 -10 9 -10 20 0
26 3 25 55 -10z m1908 -699 c23 -5 69 -15 102 -21 128 -26 176 -50 213 -107
17 -25 22 -48 22 -100 0 -184 -106 -272 -283 -234 -23 5 -69 15 -102 21 -187
36 -236 67 -266 168 -23 80 26 219 93 260 37 23 147 29 221 13z m331 -640 c3
-5 20 -11 38 -14 18 -3 49 -10 68 -16 59 -17 113 -32 150 -41 38 -9 145 -36
200 -50 19 -5 55 -13 80 -19 122 -27 150 -35 150 -43 0 -4 -12 -8 -26 -8 -37
0 -101 -18 -153 -43 l-44 -21 -221 113 c-121 63 -231 119 -243 125 -13 6 -23
14 -23 19 0 10 18 9 24 -2z"/>
</g>
</svg>
